<svg width="15" height="15" viewBox="0 0 15 15" fill="none" xmlns="http://www.w3.org/2000/svg">
<path d="M9.5168 7.92305L6.39961 11.0402C6.28563 11.1492 6.13423 11.2103 5.97656 11.2109C5.85883 11.2107 5.74381 11.1755 5.64612 11.1098C5.54844 11.0441 5.47249 10.9508 5.42795 10.8418C5.3834 10.7329 5.37226 10.6131 5.39594 10.4978C5.41962 10.3824 5.47705 10.2768 5.56094 10.1941L7.66133 8.09375H0.78125C0.623778 8.09375 0.472755 8.03119 0.361405 7.91985C0.250056 7.8085 0.1875 7.65747 0.1875 7.5C0.1875 7.34253 0.250056 7.1915 0.361405 7.08016C0.472755 6.96881 0.623778 6.90625 0.78125 6.90625H7.66133L5.56094 4.80586C5.44874 4.69464 5.38531 4.54341 5.38462 4.38544C5.38392 4.22746 5.44601 4.07568 5.55723 3.96348C5.66844 3.85128 5.81967 3.78785 5.97765 3.78716C6.13563 3.78646 6.28741 3.84855 6.39961 3.95977L9.5168 7.07695C9.62829 7.18952 9.69084 7.34156 9.69084 7.5C9.69084 7.65844 9.62829 7.81048 9.5168 7.92305ZM13.25 0.375H9.09375C8.93628 0.375 8.78525 0.437556 8.6739 0.548905C8.56256 0.660255 8.5 0.811278 8.5 0.96875C8.5 1.12622 8.56256 1.27724 8.6739 1.38859C8.78525 1.49994 8.93628 1.5625 9.09375 1.5625H13.25V13.4375H9.09375C8.93628 13.4375 8.78525 13.5001 8.6739 13.6114C8.56256 13.7228 8.5 13.8738 8.5 14.0312C8.5 14.1887 8.56256 14.3397 8.6739 14.4511C8.78525 14.5624 8.93628 14.625 9.09375 14.625H13.25C13.5649 14.625 13.867 14.4999 14.0897 14.2772C14.3124 14.0545 14.4375 13.7524 14.4375 13.4375V1.5625C14.4375 1.24756 14.3124 0.94551 14.0897 0.722811C13.867 0.500111 13.5649 0.375 13.25 0.375Z" fill="#2C60E3"/>
</svg>
